<?xml version="1.0" encoding="utf-8"?>
<!-- Generator: Adobe Illustrator 22.1.0, SVG Export Plug-In . SVG Version: 6.00 Build 0)  -->

<svg version="1.1" id="Ebene_1" xmlns="http://www.w3.org/2000/svg" xmlns:xlink="http://www.w3.org/1999/xlink" x="0px" y="0px"
	 viewBox="0 0 226.8 149.2" style="enable-background:new 0 0 226.8 149.2;" xml:space="preserve">
<g id="Die_Steuer-IT">
	<path style="fill:#ed2551" d="M89.6,106.5c-1.5,0-2.6,1.1-2.6,2.7c0,1.5,1.1,2.7,2.6,2.7c0.9,0,1.6-0.4,2.2-1.1l0,0l-0.6-0.5l0,0
		c-0.3,0.4-0.8,0.8-1.6,0.8c-1,0-1.7-0.8-1.8-1.7H92l0,0c0-0.1,0-0.2,0-0.3C92,107.5,91.1,106.5,89.6,106.5z M87.9,108.7
		c0.1-0.8,0.7-1.5,1.7-1.5c0.9,0,1.5,0.6,1.6,1.5H87.9z"/>
	<path style="fill:#ed2551" d="M101.5,108.1c-0.4-0.3-1-0.5-1.5-0.7l-0.1,0c-0.8-0.3-1.6-0.5-1.6-1.4c0-0.9,0.8-1.4,1.6-1.4
		c0.7,0,1.2,0.3,1.5,0.7l0,0l0.7-0.5l0,0c-0.3-0.5-1.1-0.9-2.2-0.9c-1.2,0-2.4,0.7-2.4,2.1c0,1.4,1.1,1.8,2.1,2.1l0,0
		c1,0.3,1.8,0.6,1.8,1.6c0,0.9-0.8,1.4-1.6,1.4c-0.7,0-1.3-0.3-1.7-0.9l0,0l-0.7,0.5l0,0c0.5,0.7,1.4,1.1,2.4,1.1
		c0.6,0,1.3-0.2,1.7-0.5c0.5-0.4,0.8-1,0.8-1.7C102.2,109,101.9,108.5,101.5,108.1z"/>
	<path style="fill:#ed2551" d="M77.8,104h-2.5v7.6h2.5c2,0,4-1.3,4-3.8S79.8,104,77.8,104z M80.9,107.9c0,2.1-1.7,3-3.3,3h-1.5v-6.1h1.5
		C79.2,104.8,80.9,105.8,80.9,107.9z"/>
	<path style="fill:#ed2551" d="M84.4,104.2c-0.3,0-0.6,0.2-0.6,0.6c0,0.3,0.3,0.6,0.6,0.6s0.6-0.2,0.6-0.6C85,104.4,84.7,104.2,84.4,104.2z"
		/>
	<path style="fill:#ed2551" d="M106.6,110.9c-0.2,0.1-0.4,0.2-0.6,0.2c-0.4,0-0.7-0.1-0.7-0.9v-2.9h1.4v-0.7h-1.4v-1.4h-0.8v1.4h-1v0.7h1v3.1
		c0,1.2,0.9,1.4,1.3,1.4c0.3,0,0.6,0,0.9-0.2l0,0L106.6,110.9L106.6,110.9z"/>
	<rect x="84" y="106.6" style="fill:#ed2551" width="0.8" height="5.1"/>
	<rect x="132.9" y="108.7" style="fill:#ed2551" width="2.5" height="0.7"/>
	<rect x="137.2" y="104" style="fill:#ed2551" width="0.8" height="7.6"/>
	<polygon style="fill:#ed2551" points="139.9,104 139.9,104.8 142.4,104.8 142.4,111.7 143.2,111.7 143.2,104.8 145.8,104.8 145.8,104 	"/>
	<path style="fill:#ed2551" d="M110.7,106.5c-1.5,0-2.6,1.1-2.6,2.7c0,1.5,1.1,2.7,2.6,2.7c0.9,0,1.6-0.4,2.2-1.1l0,0l-0.6-0.5l0,0l0,0
		c-0.3,0.4-0.8,0.8-1.6,0.8c-1,0-1.7-0.8-1.8-1.7h4.1l0,0c0-0.1,0-0.2,0-0.3C113.1,107.5,112.1,106.5,110.7,106.5z M109,108.7
		c0.1-0.8,0.7-1.5,1.7-1.5c0.9,0,1.5,0.6,1.6,1.5H109z"/>
	<path style="fill:#ed2551" d="M119.7,110.5v-3.9h-0.8v2.6c0,1.3-0.7,1.9-1.5,1.9c-0.9,0-1.3-0.5-1.3-1.7v-2.8h-0.8v3.1
		c0,1.3,0.7,2.1,1.9,2.1c0.7,0,1.4-0.4,1.7-0.9c0,0.2,0,0.5,0,0.7l0,0h0.8l0,0C119.7,111.3,119.7,110.8,119.7,110.5z"/>
	<path style="fill:#ed2551" d="M131.4,106.5c-0.7,0-1.3,0.3-1.6,0.9c0-0.2,0-0.5,0-0.7l0,0H129l0,0c0,0.3,0,0.8,0,1.1v3.9h0.8v-2.6
		c0-0.9,0.4-1.8,1.4-1.8c0.2,0,0.4,0,0.5,0.1l0,0l0.1-0.8l0,0C131.8,106.5,131.6,106.5,131.4,106.5z"/>
	<path style="fill:#ed2551" d="M124.4,106.5c-1.5,0-2.6,1.1-2.6,2.7c0,1.5,1.1,2.7,2.6,2.7c0.9,0,1.6-0.4,2.2-1.1l0,0l-0.6-0.5l0,0
		c-0.3,0.4-0.8,0.8-1.6,0.8c-1,0-1.7-0.8-1.8-1.7h4.1l0,0c0-0.1,0-0.2,0-0.3C126.9,107.5,125.9,106.5,124.4,106.5z M122.7,108.7
		c0.1-0.8,0.7-1.5,1.7-1.5c0.9,0,1.5,0.6,1.6,1.5H122.7z"/>
</g>
<g id="KONSENS">
	<path style="fill:#ed2551" d="M181.7,93.8c0.6,0.9,1.5,1.5,2.6,1.9c1.1,0.4,2.2,0.6,3.4,0.6c0.9,0,1.7-0.1,2.5-0.4c0.8-0.3,1.5-0.6,2.1-1.1
		c0.6-0.5,1-1.1,1.4-1.8c0.3-0.7,0.5-1.5,0.5-2.4c0-1.1-0.2-2-0.7-2.6c-0.5-0.6-1-1.1-1.7-1.5c-0.7-0.4-1.4-0.7-2.2-0.9
		c-0.8-0.2-1.5-0.4-2.2-0.7c-0.7-0.3-1.2-0.6-1.7-1c-0.5-0.4-0.7-1-0.7-1.8c0-0.3,0.1-0.6,0.2-0.9c0.1-0.3,0.3-0.6,0.6-0.9
		c0.3-0.3,0.7-0.5,1.1-0.7c0.5-0.2,1-0.3,1.8-0.3c0.7,0,1.4,0.1,2,0.4c0.6,0.3,1,0.7,1.3,1.2l2.1-1.9c-0.7-0.9-1.5-1.4-2.4-1.7
		c-0.9-0.3-1.9-0.4-2.9-0.4c-1.1,0-2.1,0.2-2.9,0.5c-0.8,0.3-1.5,0.8-2,1.3c-0.5,0.5-0.9,1.1-1.1,1.7c-0.2,0.6-0.4,1.2-0.4,1.7
		c0,1.2,0.2,2.2,0.7,2.9c0.5,0.7,1,1.3,1.7,1.7c0.7,0.4,1.4,0.8,2.2,1c0.8,0.2,1.5,0.5,2.2,0.7c0.7,0.3,1.2,0.6,1.7,0.9
		c0.5,0.4,0.7,0.9,0.7,1.6c0,0.5-0.1,1-0.3,1.3c-0.2,0.4-0.5,0.7-0.9,1c-0.4,0.3-0.8,0.5-1.2,0.6c-0.4,0.1-0.9,0.2-1.3,0.2
		c-0.8,0-1.5-0.2-2.2-0.5c-0.7-0.3-1.3-0.8-1.8-1.5L181.7,93.8z"/>
	<path style="fill:#027596" d="M162.4,95.9h2.5V80.6h0.1l10.4,15.3h3.2V77.3h-2.5v15.3H176l-10.3-15.3h-3.3V95.9z M146.6,95.9h12.5v-2.4h-10
		v-6h8.8v-2.4h-8.8v-5.6h9.5v-2.4h-12V95.9z M130.6,93.8c0.6,0.9,1.5,1.5,2.6,1.9c1.1,0.4,2.2,0.6,3.4,0.6c0.9,0,1.7-0.1,2.5-0.4
		c0.8-0.3,1.5-0.6,2.1-1.1c0.6-0.5,1-1.1,1.4-1.8c0.3-0.7,0.5-1.5,0.5-2.4c0-1.1-0.2-2-0.7-2.6c-0.5-0.6-1-1.1-1.7-1.5
		c-0.7-0.4-1.4-0.7-2.2-0.9c-0.8-0.2-1.5-0.4-2.2-0.7c-0.7-0.3-1.2-0.6-1.7-1c-0.5-0.4-0.7-1-0.7-1.8c0-0.3,0.1-0.6,0.2-0.9
		c0.1-0.3,0.3-0.6,0.6-0.9c0.3-0.3,0.7-0.5,1.1-0.7c0.5-0.2,1-0.3,1.8-0.3c0.7,0,1.4,0.1,2,0.4c0.6,0.3,1,0.7,1.3,1.2l2.1-1.9
		c-0.7-0.9-1.5-1.4-2.4-1.7c-0.9-0.3-1.9-0.4-2.9-0.4c-1.1,0-2.1,0.2-2.9,0.5c-0.8,0.3-1.5,0.8-2,1.3c-0.5,0.5-0.9,1.1-1.1,1.7
		c-0.2,0.6-0.4,1.2-0.4,1.7c0,1.2,0.2,2.2,0.7,2.9c0.5,0.7,1,1.3,1.7,1.7c0.7,0.4,1.4,0.8,2.2,1c0.8,0.2,1.5,0.5,2.2,0.7
		c0.7,0.3,1.2,0.6,1.7,0.9c0.5,0.4,0.7,0.9,0.7,1.6c0,0.5-0.1,1-0.3,1.3c-0.2,0.4-0.5,0.7-0.9,1c-0.4,0.3-0.8,0.5-1.2,0.6
		c-0.4,0.1-0.9,0.2-1.3,0.2c-0.8,0-1.5-0.2-2.2-0.5c-0.7-0.3-1.3-0.8-1.8-1.5L130.6,93.8z M111.3,95.9h2.5V80.6h0.1l10.4,15.3h3.2
		V77.3H125v15.3h-0.1l-10.3-15.3h-3.3V95.9z M95.9,93.4c-0.9-0.4-1.6-0.9-2.2-1.6c-0.6-0.7-1.1-1.5-1.4-2.4
		c-0.3-0.9-0.5-1.9-0.5-2.9c0-1,0.2-2,0.5-2.9c0.3-0.9,0.8-1.7,1.4-2.4c0.6-0.7,1.4-1.2,2.2-1.6c0.9-0.4,1.8-0.6,2.9-0.6
		c1.1,0,2,0.2,2.9,0.6c0.9,0.4,1.6,0.9,2.2,1.6c0.6,0.7,1.1,1.5,1.4,2.4c0.3,0.9,0.5,1.9,0.5,2.9c0,1-0.2,2-0.5,2.9
		c-0.3,0.9-0.8,1.7-1.4,2.4c-0.6,0.7-1.4,1.2-2.2,1.6c-0.9,0.4-1.8,0.6-2.9,0.6C97.7,94,96.7,93.8,95.9,93.4 M102.7,95.6
		c1.2-0.5,2.2-1.2,3.1-2.1c0.9-0.9,1.5-1.9,2-3.1c0.5-1.2,0.7-2.5,0.7-3.9c0-1.4-0.2-2.7-0.7-3.9c-0.5-1.2-1.2-2.2-2-3.1
		c-0.9-0.9-1.9-1.6-3.1-2.1c-1.2-0.5-2.5-0.8-3.9-0.8s-2.7,0.3-3.9,0.8c-1.2,0.5-2.2,1.2-3.1,2.1c-0.9,0.9-1.5,1.9-2,3.1
		c-0.5,1.2-0.7,2.5-0.7,3.9c0,1.4,0.2,2.7,0.7,3.9c0.5,1.2,1.1,2.2,2,3.1c0.9,0.9,1.9,1.6,3.1,2.1c1.2,0.5,2.5,0.8,3.9,0.8
		S101.5,96.1,102.7,95.6 M75.3,95.9h2.5v-9.3H78l8.7,9.3h3.7l-9.6-10l9-8.6h-3.5L78,85.3h-0.2v-8.1h-2.5V95.9z"/>
</g>
<g id="Bildmarke">
	<g id="Punkte">
		<path style="fill:#ed2551" d="M82,66.8c-1.4,0-2.5,1.1-2.5,2.5c0,1.4,1.1,2.5,2.5,2.5c1.4,0,2.5-1.1,2.5-2.5C84.5,67.9,83.4,66.8,82,66.8"
			/>
		<path style="fill:#ed2551" d="M55.8,26.8c-1.4,0-2.5,1.1-2.5,2.5c0,1.4,1.1,2.5,2.5,2.5c1.4,0,2.5-1.1,2.5-2.5
			C58.3,27.9,57.2,26.8,55.8,26.8"/>
		<path style="fill:#ed2551" d="M55.1,36.2c-1.4,0-2.5,1.1-2.5,2.5c0,1.4,1.1,2.5,2.5,2.5c1.4,0,2.5-1.1,2.5-2.5
			C57.6,37.3,56.5,36.2,55.1,36.2"/>
		<path style="fill:#ed2551" d="M45.3,41.5c-1.4,0-2.5,1.1-2.5,2.5c0,1.4,1.1,2.5,2.5,2.5c1.4,0,2.5-1.1,2.5-2.5
			C47.8,42.6,46.7,41.5,45.3,41.5"/>
		<path style="fill:#ed2551" d="M53.2,49.7c-1.4,0-2.5,1.1-2.5,2.5c0,1.4,1.1,2.5,2.5,2.5c1.4,0,2.5-1.1,2.5-2.5
			C55.7,50.8,54.5,49.7,53.2,49.7"/>
		<path style="fill:#ed2551" d="M65.2,35.7c-1.4,0-2.5,1.1-2.5,2.5c0,1.4,1.1,2.5,2.5,2.5c1.4,0,2.5-1.1,2.5-2.5
			C67.7,36.8,66.6,35.7,65.2,35.7"/>
		<path style="fill:#ed2551" d="M29.2,87.6c-1.4,0-2.5,1.1-2.5,2.5c0,1.4,1.1,2.5,2.5,2.5c1.4,0,2.5-1.1,2.5-2.5
			C31.7,88.7,30.6,87.6,29.2,87.6"/>
		<path style="fill:#ed2551" d="M38,81.4c-1.4,0-2.5,1.1-2.5,2.5c0,1.4,1.1,2.5,2.5,2.5c1.4,0,2.5-1.1,2.5-2.5C40.5,82.6,39.4,81.4,38,81.4"
			/>
		<path style="fill:#ed2551" d="M42.1,77c-1.4,0-2.5,1.1-2.5,2.5c0,1.4,1.1,2.5,2.5,2.5c1.4,0,2.5-1.1,2.5-2.5C44.6,78.1,43.5,77,42.1,77"/>
		<path style="fill:#ed2551" d="M47.6,93.9c-1.4,0-2.5,1.1-2.5,2.5c0,1.4,1.1,2.5,2.5,2.5c1.4,0,2.5-1.1,2.5-2.5C50.1,95,49,93.9,47.6,93.9"
			/>
		<path style="fill:#ed2551" d="M65,101.6c-1.4,0-2.5,1.1-2.5,2.5c0,1.4,1.1,2.5,2.5,2.5c1.4,0,2.5-1.1,2.5-2.5
			C67.6,102.7,66.4,101.6,65,101.6"/>
		<path style="fill:#ed2551" d="M75.1,52.3c-1.4,0-2.5,1.1-2.5,2.5c0,1.4,1.1,2.5,2.5,2.5c1.4,0,2.5-1.1,2.5-2.5
			C77.6,53.4,76.5,52.3,75.1,52.3"/>
		<path style="fill:#ed2551" d="M78.5,47.4c-1.4,0-2.5,1.1-2.5,2.5c0,1.4,1.1,2.5,2.5,2.5c1.4,0,2.5-1.1,2.5-2.5C81,48.5,79.9,47.4,78.5,47.4
			"/>
		<path style="fill:#ed2551" d="M65.9,54.6c-1.4,0-2.5,1.1-2.5,2.5c0,1.4,1.1,2.5,2.5,2.5s2.5-1.1,2.5-2.5C68.4,55.7,67.3,54.6,65.9,54.6"/>
		<path style="fill:#ed2551" d="M29.7,63.6c-1.4,0-2.5,1.1-2.5,2.5c0,1.4,1.1,2.5,2.5,2.5s2.5-1.1,2.5-2.5C32.3,64.8,31.1,63.6,29.7,63.6"/>
		<path style="fill:#ed2551" d="M60.8,67.5c-1.4,0-2.5,1.1-2.5,2.5c0,1.4,1.1,2.5,2.5,2.5c1.4,0,2.5-1.1,2.5-2.5
			C63.4,68.6,62.2,67.5,60.8,67.5"/>
	</g>
	<g id="Linien">
		<path style="fill:#027596" d="M50.5,50.1c0.2-0.3,0.5-0.6,0.9-0.8l-3.2-3.4c-0.2,0.3-0.5,0.6-0.8,0.8L50.5,50.1z"/>
		<path style="fill:#027596" d="M57.6,70.9l-12.8,6.5c0.2,0.3,0.4,0.7,0.6,1L58.1,72C57.8,71.6,57.7,71.3,57.6,70.9"/>
		<path style="fill:#027596" d="M57.6,68.9l-24.5-3c0,0.1,0,0.2,0,0.3c0,0.3,0,0.6-0.1,0.9l24.4,3c0,0,0,0,0-0.1
			C57.5,69.6,57.5,69.2,57.6,68.9"/>
		<path style="fill:#027596" d="M32.9,65l17.9-10.3c-0.3-0.3-0.5-0.6-0.7-1L32.3,63.9C32.6,64.2,32.8,64.6,32.9,65"/>
		<path style="fill:#027596" d="M63.1,55.2l-6.6-2.5c-0.1,0.4-0.2,0.8-0.4,1.1l6.5,2.5C62.7,55.9,62.9,55.6,63.1,55.2"/>
		<path style="fill:#027596" d="M54.3,49l0.9-6.9c0,0-0.1,0-0.1,0c-0.4,0-0.7-0.1-1.1-0.2l-0.9,6.8c0,0,0,0,0.1,0
			C53.5,48.8,53.9,48.9,54.3,49"/>
		<path style="fill:#027596" d="M66.5,53.7L66,41.5c-0.3,0.1-0.5,0.1-0.8,0.1c-0.1,0-0.3,0-0.4,0l0.4,12.2c0.2,0,0.4-0.1,0.6-0.1
			C66.1,53.7,66.3,53.7,66.5,53.7"/>
		<path style="fill:#027596" d="M68.1,39.9c-0.2,0.3-0.5,0.6-0.8,0.9l8.1,7.5c0.2-0.4,0.4-0.7,0.7-0.9L68.1,39.9z"/>
		<path style="fill:#027596" d="M39.4,77.5c0.2-0.3,0.5-0.6,0.9-0.8l-7.9-8.3c-0.3,0.3-0.6,0.6-0.9,0.8L39.4,77.5z"/>
		<path style="fill:#027596" d="M35,85.5l-3.4,2.2c0.3,0.3,0.5,0.6,0.7,1l3.4-2.2C35.4,86.2,35.2,85.8,35,85.5"/>
		<path style="fill:#027596" d="M40.4,86.4c-0.3,0.3-0.6,0.5-1,0.7l5.7,7.1c0.3-0.3,0.6-0.5,0.9-0.7L40.4,86.4z"/>
		<path style="fill:#027596" d="M71.7,55.2l-2.7,0.6c0.1,0.4,0.2,0.7,0.3,1.2l2.8-0.6C71.9,55.9,71.8,55.6,71.7,55.2"/>
		<path style="fill:#027596" d="M62.2,102.2l-11.3-5.1c-0.1,0.4-0.2,0.8-0.5,1.1l11.3,5.1C61.8,102.9,62,102.5,62.2,102.2"/>
		<path style="fill:#027596" d="M60.8,73.4c-0.1,0-0.2,0-0.2,0l3.4,27.5c0.3-0.1,0.7-0.2,1.1-0.2c0,0,0.1,0,0.1,0l-3.3-27.4
			C61.5,73.3,61.2,73.4,60.8,73.4"/>
		<path style="fill:#027596" d="M44.6,94.7l-12-4.2c-0.1,0.4-0.2,0.8-0.4,1.1l12,4.1C44.3,95.4,44.4,95.1,44.6,94.7"/>
		<path style="fill:#027596" d="M78.6,68.7l-14.5,0.6c0,0.2,0.1,0.5,0.1,0.7c0,0.2,0,0.3,0,0.5l14.5-0.6c0-0.2-0.1-0.4-0.1-0.6
			C78.6,69.1,78.6,68.9,78.6,68.7"/>
		<path style="fill:#027596" d="M79.7,53.1c-0.4,0.1-0.8,0.2-1.2,0.2l2.3,12.8c0.4-0.1,0.7-0.2,1.1-0.2c0,0,0,0,0,0L79.7,53.1z"/>
		<path style="fill:#027596" d="M64.2,60l-2.7,6.7c0.4,0.1,0.8,0.2,1.1,0.4l2.7-6.7C64.9,60.3,64.6,60.2,64.2,60"/>
		<path style="fill:#027596" d="M55.1,35.3c0.3,0,0.7,0.1,1,0.1l0.1-2.8c-0.1,0-0.3,0-0.4,0c-0.3,0-0.5,0-0.8-0.1l-0.1,2.8
			C54.9,35.3,55,35.3,55.1,35.3"/>
		<path style="fill:#027596" d="M58.4,38c0.1,0.2,0.1,0.5,0.1,0.7c0,0.2,0,0.3,0,0.5l3.5-0.3c-0.1-0.2-0.1-0.5-0.1-0.7c0-0.2,0-0.3,0-0.5
			L58.4,38z"/>
		<path style="fill:#027596" d="M31.9,63.6L43.8,47c-0.4-0.2-0.7-0.4-1-0.7L30.9,63C31.3,63.1,31.6,63.3,31.9,63.6"/>
		<path style="fill:#027596" d="M48.5,42.9l3.9-2.1c-0.2-0.3-0.4-0.7-0.6-1L48,41.9C48.2,42.2,48.4,42.6,48.5,42.9"/>
	</g>
</g>
</svg>
